<svg width="180" height="24" viewBox="0 0 180 24" fill="none" xmlns="http://www.w3.org/2000/svg">
<path d="M11 23.625C5.11328 23.625 0.34375 18.4219 0.34375 12C0.34375 5.57812 5.11328 0.375 11 0.375C16.8867 0.375 21.6562 5.57812 21.6562 12C21.6562 18.4219 16.8867 23.625 11 23.625ZM15.9844 9.9375H11V6.61406C11 6.1125 10.4414 5.85938 10.1191 6.21563L5.20781 11.6016C5.00586 11.8219 5.00586 12.1734 5.20781 12.3937L10.1191 17.7797C10.4457 18.1359 11 17.8828 11 17.3812V14.0625H15.9844C16.268 14.0625 16.5 13.8094 16.5 13.5V10.5C16.5 10.1906 16.268 9.9375 15.9844 9.9375Z" fill="#219EBC"/>
<path d="M40.0938 6.57812H41.5234L37.4062 18H36.0938L32 6.57812H33.4062L36.0312 13.9688C36.3333 14.8177 36.5729 15.6432 36.75 16.4453C36.9375 15.6016 37.1823 14.7604 37.4844 13.9219L40.0938 6.57812ZM50.2969 13.7109C50.2969 15.1068 49.9453 16.1979 49.2422 16.9844C48.5391 17.7656 47.5677 18.1562 46.3281 18.1562C45.5625 18.1562 44.8828 17.9766 44.2891 17.6172C43.6953 17.2578 43.237 16.7422 42.9141 16.0703C42.5911 15.3984 42.4297 14.612 42.4297 13.7109C42.4297 12.3151 42.7786 11.2292 43.4766 10.4531C44.1745 9.67188 45.1432 9.28125 46.3828 9.28125C47.5807 9.28125 48.5312 9.67969 49.2344 10.4766C49.9427 11.2734 50.2969 12.3516 50.2969 13.7109ZM43.7734 13.7109C43.7734 14.8047 43.9922 15.638 44.4297 16.2109C44.8672 16.7839 45.5104 17.0703 46.3594 17.0703C47.2083 17.0703 47.8516 16.7865 48.2891 16.2188C48.7318 15.6458 48.9531 14.8099 48.9531 13.7109C48.9531 12.6224 48.7318 11.7969 48.2891 11.2344C47.8516 10.6667 47.2031 10.3828 46.3438 10.3828C45.4948 10.3828 44.8542 10.6615 44.4219 11.2188C43.9896 11.776 43.7734 12.6068 43.7734 13.7109ZM53.875 18H52.5781V5.84375H53.875V18ZM59.3906 17.0859C59.6198 17.0859 59.8411 17.0703 60.0547 17.0391C60.2682 17.0026 60.4375 16.9661 60.5625 16.9297V17.9219C60.4219 17.9896 60.2135 18.0443 59.9375 18.0859C59.6667 18.1328 59.4219 18.1562 59.2031 18.1562C57.5469 18.1562 56.7188 17.2839 56.7188 15.5391V10.4453H55.4922V9.82031L56.7188 9.28125L57.2656 7.45312H58.0156V9.4375H60.5V10.4453H58.0156V15.4844C58.0156 16 58.138 16.3958 58.3828 16.6719C58.6276 16.9479 58.9635 17.0859 59.3906 17.0859ZM67.5469 18L67.2891 16.7812H67.2266C66.7995 17.3177 66.3724 17.6823 65.9453 17.875C65.5234 18.0625 64.9948 18.1562 64.3594 18.1562C63.5104 18.1562 62.8438 17.9375 62.3594 17.5C61.8802 17.0625 61.6406 16.4401 61.6406 15.6328C61.6406 13.9036 63.0234 12.9974 65.7891 12.9141L67.2422 12.8672V12.3359C67.2422 11.6641 67.0964 11.1693 66.8047 10.8516C66.5182 10.5286 66.0573 10.3672 65.4219 10.3672C64.7083 10.3672 63.901 10.5859 63 11.0234L62.6016 10.0312C63.0234 9.80208 63.4844 9.6224 63.9844 9.49219C64.4896 9.36198 64.9948 9.29688 65.5 9.29688C66.5208 9.29688 67.276 9.52344 67.7656 9.97656C68.2604 10.4297 68.5078 11.1562 68.5078 12.1562V18H67.5469ZM64.6172 17.0859C65.4245 17.0859 66.0573 16.8646 66.5156 16.4219C66.9792 15.9792 67.2109 15.3594 67.2109 14.5625V13.7891L65.9141 13.8438C64.8828 13.8802 64.138 14.0417 63.6797 14.3281C63.2266 14.6094 63 15.0495 63 15.6484C63 16.1172 63.1406 16.474 63.4219 16.7188C63.7083 16.9635 64.1068 17.0859 64.6172 17.0859ZM75.0938 9.28125C75.474 9.28125 75.8151 9.3125 76.1172 9.375L75.9375 10.5781C75.5833 10.5 75.2708 10.4609 75 10.4609C74.3073 10.4609 73.7135 10.7422 73.2188 11.3047C72.7292 11.8672 72.4844 12.5677 72.4844 13.4062V18H71.1875V9.4375H72.2578L72.4062 11.0234H72.4688C72.7865 10.4661 73.1693 10.0365 73.6172 9.73438C74.0651 9.43229 74.5573 9.28125 75.0938 9.28125ZM90.0156 18.1562C89.4583 18.1562 88.9479 18.0547 88.4844 17.8516C88.026 17.6432 87.6406 17.3255 87.3281 16.8984H87.2344C87.2969 17.3984 87.3281 17.8724 87.3281 18.3203V21.8438H86.0312V9.4375H87.0859L87.2656 10.6094H87.3281C87.6615 10.1406 88.0495 9.80208 88.4922 9.59375C88.9349 9.38542 89.4427 9.28125 90.0156 9.28125C91.151 9.28125 92.026 9.66927 92.6406 10.4453C93.2604 11.2214 93.5703 12.3099 93.5703 13.7109C93.5703 15.1172 93.2552 16.2109 92.625 16.9922C92 17.7682 91.1302 18.1562 90.0156 18.1562ZM89.8281 10.3828C88.9531 10.3828 88.3203 10.625 87.9297 11.1094C87.5391 11.5938 87.3385 12.3646 87.3281 13.4219V13.7109C87.3281 14.9141 87.5286 15.776 87.9297 16.2969C88.3307 16.8125 88.974 17.0703 89.8594 17.0703C90.599 17.0703 91.1771 16.7708 91.5938 16.1719C92.0156 15.5729 92.2266 14.7474 92.2266 13.6953C92.2266 12.6276 92.0156 11.8099 91.5938 11.2422C91.1771 10.6693 90.5885 10.3828 89.8281 10.3828ZM101.109 18L100.852 16.7812H100.789C100.362 17.3177 99.9349 17.6823 99.5078 17.875C99.0859 18.0625 98.5573 18.1562 97.9219 18.1562C97.0729 18.1562 96.4062 17.9375 95.9219 17.5C95.4427 17.0625 95.2031 16.4401 95.2031 15.6328C95.2031 13.9036 96.5859 12.9974 99.3516 12.9141L100.805 12.8672V12.3359C100.805 11.6641 100.659 11.1693 100.367 10.8516C100.081 10.5286 99.6198 10.3672 98.9844 10.3672C98.2708 10.3672 97.4635 10.5859 96.5625 11.0234L96.1641 10.0312C96.5859 9.80208 97.0469 9.6224 97.5469 9.49219C98.0521 9.36198 98.5573 9.29688 99.0625 9.29688C100.083 9.29688 100.839 9.52344 101.328 9.97656C101.823 10.4297 102.07 11.1562 102.07 12.1562V18H101.109ZM98.1797 17.0859C98.987 17.0859 99.6198 16.8646 100.078 16.4219C100.542 15.9792 100.773 15.3594 100.773 14.5625V13.7891L99.4766 13.8438C98.4453 13.8802 97.7005 14.0417 97.2422 14.3281C96.7891 14.6094 96.5625 15.0495 96.5625 15.6484C96.5625 16.1172 96.7031 16.474 96.9844 16.7188C97.2708 16.9635 97.6693 17.0859 98.1797 17.0859ZM108.656 9.28125C109.036 9.28125 109.378 9.3125 109.68 9.375L109.5 10.5781C109.146 10.5 108.833 10.4609 108.562 10.4609C107.87 10.4609 107.276 10.7422 106.781 11.3047C106.292 11.8672 106.047 12.5677 106.047 13.4062V18H104.75V9.4375H105.82L105.969 11.0234H106.031C106.349 10.4661 106.732 10.0365 107.18 9.73438C107.628 9.43229 108.12 9.28125 108.656 9.28125ZM116.547 18L116.289 16.7812H116.227C115.799 17.3177 115.372 17.6823 114.945 17.875C114.523 18.0625 113.995 18.1562 113.359 18.1562C112.51 18.1562 111.844 17.9375 111.359 17.5C110.88 17.0625 110.641 16.4401 110.641 15.6328C110.641 13.9036 112.023 12.9974 114.789 12.9141L116.242 12.8672V12.3359C116.242 11.6641 116.096 11.1693 115.805 10.8516C115.518 10.5286 115.057 10.3672 114.422 10.3672C113.708 10.3672 112.901 10.5859 112 11.0234L111.602 10.0312C112.023 9.80208 112.484 9.6224 112.984 9.49219C113.49 9.36198 113.995 9.29688 114.5 9.29688C115.521 9.29688 116.276 9.52344 116.766 9.97656C117.26 10.4297 117.508 11.1562 117.508 12.1562V18H116.547ZM113.617 17.0859C114.424 17.0859 115.057 16.8646 115.516 16.4219C115.979 15.9792 116.211 15.3594 116.211 14.5625V13.7891L114.914 13.8438C113.883 13.8802 113.138 14.0417 112.68 14.3281C112.227 14.6094 112 15.0495 112 15.6484C112 16.1172 112.141 16.474 112.422 16.7188C112.708 16.9635 113.107 17.0859 113.617 17.0859ZM129.609 18L129.352 16.7812H129.289C128.862 17.3177 128.435 17.6823 128.008 17.875C127.586 18.0625 127.057 18.1562 126.422 18.1562C125.573 18.1562 124.906 17.9375 124.422 17.5C123.943 17.0625 123.703 16.4401 123.703 15.6328C123.703 13.9036 125.086 12.9974 127.852 12.9141L129.305 12.8672V12.3359C129.305 11.6641 129.159 11.1693 128.867 10.8516C128.581 10.5286 128.12 10.3672 127.484 10.3672C126.771 10.3672 125.964 10.5859 125.062 11.0234L124.664 10.0312C125.086 9.80208 125.547 9.6224 126.047 9.49219C126.552 9.36198 127.057 9.29688 127.562 9.29688C128.583 9.29688 129.339 9.52344 129.828 9.97656C130.323 10.4297 130.57 11.1562 130.57 12.1562V18H129.609ZM126.68 17.0859C127.487 17.0859 128.12 16.8646 128.578 16.4219C129.042 15.9792 129.273 15.3594 129.273 14.5625V13.7891L127.977 13.8438C126.945 13.8802 126.201 14.0417 125.742 14.3281C125.289 14.6094 125.062 15.0495 125.062 15.6484C125.062 16.1172 125.203 16.474 125.484 16.7188C125.771 16.9635 126.169 17.0859 126.68 17.0859ZM141.391 9.29688C142.516 9.29688 143.388 9.68229 144.008 10.4531C144.633 11.2188 144.945 12.3047 144.945 13.7109C144.945 15.1172 144.63 16.2109 144 16.9922C143.375 17.7682 142.505 18.1562 141.391 18.1562C140.833 18.1562 140.323 18.0547 139.859 17.8516C139.401 17.6432 139.016 17.3255 138.703 16.8984H138.609L138.336 18H137.406V5.84375H138.703V8.79688C138.703 9.45833 138.682 10.0521 138.641 10.5781H138.703C139.307 9.72396 140.203 9.29688 141.391 9.29688ZM141.203 10.3828C140.318 10.3828 139.68 10.638 139.289 11.1484C138.898 11.6536 138.703 12.5078 138.703 13.7109C138.703 14.9141 138.904 15.776 139.305 16.2969C139.706 16.8125 140.349 17.0703 141.234 17.0703C142.031 17.0703 142.625 16.7812 143.016 16.2031C143.406 15.6198 143.602 14.7839 143.602 13.6953C143.602 12.5807 143.406 11.75 143.016 11.2031C142.625 10.6562 142.021 10.3828 141.203 10.3828ZM148.438 9.4375V14.9922C148.438 15.6901 148.596 16.2109 148.914 16.5547C149.232 16.8984 149.729 17.0703 150.406 17.0703C151.302 17.0703 151.956 16.8255 152.367 16.3359C152.784 15.8464 152.992 15.0469 152.992 13.9375V9.4375H154.289V18H153.219L153.031 16.8516H152.961C152.695 17.2734 152.326 17.5964 151.852 17.8203C151.383 18.0443 150.846 18.1562 150.242 18.1562C149.201 18.1562 148.419 17.9089 147.898 17.4141C147.383 16.9193 147.125 16.1276 147.125 15.0391V9.4375H148.438ZM162.57 15.6641C162.57 16.4609 162.273 17.0755 161.68 17.5078C161.086 17.9401 160.253 18.1562 159.18 18.1562C158.044 18.1562 157.159 17.9766 156.523 17.6172V16.4141C156.935 16.6224 157.375 16.7865 157.844 16.9062C158.318 17.026 158.773 17.0859 159.211 17.0859C159.888 17.0859 160.409 16.9792 160.773 16.7656C161.138 16.5469 161.32 16.2161 161.32 15.7734C161.32 15.4401 161.174 15.1562 160.883 14.9219C160.596 14.6823 160.034 14.401 159.195 14.0781C158.398 13.7812 157.831 13.5234 157.492 13.3047C157.159 13.0807 156.909 12.8281 156.742 12.5469C156.581 12.2656 156.5 11.9297 156.5 11.5391C156.5 10.8411 156.784 10.2917 157.352 9.89062C157.919 9.48438 158.698 9.28125 159.688 9.28125C160.609 9.28125 161.51 9.46875 162.391 9.84375L161.93 10.8984C161.07 10.5443 160.292 10.3672 159.594 10.3672C158.979 10.3672 158.516 10.4635 158.203 10.6562C157.891 10.849 157.734 11.1146 157.734 11.4531C157.734 11.6823 157.792 11.8776 157.906 12.0391C158.026 12.2005 158.216 12.3542 158.477 12.5C158.737 12.6458 159.237 12.8568 159.977 13.1328C160.992 13.5026 161.677 13.875 162.031 14.25C162.391 14.625 162.57 15.0964 162.57 15.6641ZM168.109 18.1562C166.87 18.1562 165.909 17.776 165.227 17.0156C164.549 16.25 164.211 15.1693 164.211 13.7734C164.211 12.3411 164.555 11.2344 165.242 10.4531C165.935 9.67188 166.919 9.28125 168.195 9.28125C168.607 9.28125 169.018 9.32552 169.43 9.41406C169.841 9.5026 170.164 9.60677 170.398 9.72656L170 10.8281C169.714 10.7135 169.401 10.6198 169.062 10.5469C168.724 10.4688 168.424 10.4297 168.164 10.4297C166.424 10.4297 165.555 11.5391 165.555 13.7578C165.555 14.8099 165.766 15.6172 166.188 16.1797C166.615 16.7422 167.245 17.0234 168.078 17.0234C168.792 17.0234 169.523 16.8698 170.273 16.5625V17.7109C169.701 18.0078 168.979 18.1562 168.109 18.1562ZM177.578 18L177.32 16.7812H177.258C176.831 17.3177 176.404 17.6823 175.977 17.875C175.555 18.0625 175.026 18.1562 174.391 18.1562C173.542 18.1562 172.875 17.9375 172.391 17.5C171.911 17.0625 171.672 16.4401 171.672 15.6328C171.672 13.9036 173.055 12.9974 175.82 12.9141L177.273 12.8672V12.3359C177.273 11.6641 177.128 11.1693 176.836 10.8516C176.549 10.5286 176.089 10.3672 175.453 10.3672C174.74 10.3672 173.932 10.5859 173.031 11.0234L172.633 10.0312C173.055 9.80208 173.516 9.6224 174.016 9.49219C174.521 9.36198 175.026 9.29688 175.531 9.29688C176.552 9.29688 177.307 9.52344 177.797 9.97656C178.292 10.4297 178.539 11.1562 178.539 12.1562V18H177.578ZM174.648 17.0859C175.456 17.0859 176.089 16.8646 176.547 16.4219C177.01 15.9792 177.242 15.3594 177.242 14.5625V13.7891L175.945 13.8438C174.914 13.8802 174.169 14.0417 173.711 14.3281C173.258 14.6094 173.031 15.0495 173.031 15.6484C173.031 16.1172 173.172 16.474 173.453 16.7188C173.74 16.9635 174.138 17.0859 174.648 17.0859Z" fill="#219EBC"/>
</svg>
