<svg width="232" height="30" viewBox="0 0 232 30" fill="none" xmlns="http://www.w3.org/2000/svg">
<g clip-path="url(#clip0)">
<path d="M62.8962 26.5006C62.2353 25.8402 61.9269 24.8498 61.9269 23.5292C61.9269 22.9789 62.015 22.2746 62.1913 21.3722L65.4077 6.33915C65.6059 5.43673 66.355 4.7324 67.2582 4.62235L67.5226 4.57833C69.0427 4.38023 70.2984 5.72286 69.9679 7.21956L66.7956 22.0105C66.7075 22.3406 66.6634 22.6928 66.6634 23.067C66.6634 23.5072 66.7735 23.8153 66.9718 24.0134C67.1701 24.2115 67.5226 24.2995 68.0072 24.2995C68.6461 24.2995 69.2409 24.0354 69.7917 23.4851C70.2543 23.0449 70.6068 22.4727 70.8491 21.8124C70.9372 21.5703 71.1796 21.3942 71.4439 21.3942C71.9066 21.3942 72.215 21.8564 72.0388 22.2746C71.2677 24.1675 70.3424 25.4881 69.2189 26.2364C67.9411 27.0948 66.6634 27.513 65.4077 27.513C64.3943 27.491 63.5351 27.1609 62.8962 26.5006Z" fill="#FFB703"/>
<path d="M71.9286 26.2144C71.0254 25.378 70.5627 24.0354 70.5627 22.2305C70.5627 20.7118 70.8712 19.039 71.466 17.2122C72.0608 15.3853 73.0301 13.8006 74.374 12.48C75.7178 11.1594 77.4141 10.4771 79.507 10.4771C81.9303 10.4771 83.142 11.5335 83.142 13.6465C83.142 14.8791 82.7895 16.0236 82.0845 17.0581C81.3796 18.0926 80.4323 18.929 79.2647 19.5453C78.0971 20.1616 76.8414 20.5357 75.5195 20.6238C75.4755 21.2841 75.4535 21.7243 75.4535 21.9444C75.4535 23.0229 75.6297 23.7492 76.0042 24.1454C76.3787 24.5416 76.9735 24.7177 77.8327 24.7177C79.0223 24.7177 80.0357 24.4536 80.8949 23.8813C81.7321 23.331 82.6794 22.4947 83.6927 21.3721H84.8163C82.3709 25.444 79.3308 27.491 75.7178 27.491C74.0876 27.491 72.8319 27.0508 71.9286 26.2144ZM78.1191 18.1806C78.8461 17.6524 79.4409 16.9921 79.9036 16.1777C80.3442 15.3633 80.5865 14.5049 80.5865 13.6025C80.5865 12.7001 80.3001 12.2599 79.7493 12.2599C78.9563 12.2599 78.1852 12.9422 77.4141 14.3288C76.6651 15.7155 76.1144 17.3002 75.7839 19.0611C76.599 18.995 77.3921 18.7089 78.1191 18.1806Z" fill="#FFB703"/>
<path d="M92.659 26.4125C92.0202 25.7081 91.7117 24.8057 91.7117 23.7492C91.7117 23.287 91.7558 22.7588 91.888 22.1865C91.9981 21.6142 92.1083 21.042 92.2405 20.4917C92.3506 19.9414 92.4387 19.5893 92.4828 19.4352C92.659 18.6649 92.8132 17.9165 92.9895 17.1682C93.1437 16.4198 93.2318 15.8035 93.2318 15.3413C93.2318 14.2188 92.8353 13.6465 92.0422 13.6465C91.4694 13.6465 90.9627 13.9326 90.5221 14.4829C90.0815 15.0332 89.729 15.7815 89.4646 16.6839L87.5921 25.5321C87.3718 26.5445 86.4685 27.2709 85.4331 27.2709H85.1688C83.7588 27.2709 82.7234 25.9723 83.0098 24.6076L85.5873 12.502C85.8076 11.4895 86.7109 10.7632 87.7463 10.7632H88.9579C89.8612 10.7632 90.5441 11.5996 90.3459 12.48C91.4474 11.2474 92.7251 10.6311 94.2232 10.6311C95.3467 10.6311 96.2279 10.9392 96.8888 11.5555C97.5497 12.1718 97.8802 13.0963 97.8802 14.3508C97.8802 14.9891 97.7921 15.6935 97.6379 16.4858C97.4836 17.2782 97.2633 18.2246 96.9769 19.3472C96.8007 20.0295 96.6465 20.6898 96.4923 21.3501C96.3381 22.0104 96.272 22.5166 96.272 22.8908C96.272 23.331 96.3821 23.6832 96.5804 23.9253C96.7787 24.1674 97.1091 24.2775 97.5938 24.2775C98.2547 24.2775 98.7834 24.0354 99.18 23.5731C99.5765 23.1109 99.9731 22.3626 100.37 21.3721H101.757C100.942 23.7932 99.9951 25.422 98.9376 26.2364C97.8582 27.0728 96.7566 27.469 95.6111 27.469C94.2672 27.491 93.2979 27.1168 92.659 26.4125Z" fill="#FFB703"/>
<path d="M101.207 26.1924C100.37 25.334 99.951 23.9914 99.951 22.1645C99.951 20.5358 100.281 18.819 100.92 17.0361C101.559 15.2533 102.551 13.7346 103.828 12.48C105.128 11.2474 106.648 10.6091 108.433 10.6091C109.336 10.6091 109.997 10.7632 110.437 11.0714C110.878 11.3795 111.098 11.7977 111.098 12.2819V12.414L112.398 6.33915C112.596 5.43673 113.345 4.7324 114.249 4.62235L114.491 4.57833C116.011 4.38023 117.267 5.72286 116.936 7.21956L113.83 22.0105C113.742 22.3406 113.698 22.6928 113.698 23.067C113.698 23.5072 113.808 23.8153 114.006 24.0134C114.205 24.2115 114.557 24.2995 115.042 24.2995C115.659 24.2995 116.187 24.0354 116.65 23.5072C117.091 22.9789 117.465 22.2746 117.729 21.3942H119.117C117.773 25.334 115.548 27.3149 112.486 27.3149C111.583 27.3149 110.856 27.0728 110.283 26.5886C109.732 26.1044 109.38 25.4 109.248 24.4756C108.675 25.356 107.992 26.0824 107.177 26.6546C106.362 27.2269 105.437 27.513 104.357 27.513C103.079 27.491 102.044 27.0508 101.207 26.1924ZM108.102 23.5512C108.631 23.067 109.005 22.3846 109.204 21.5482V21.3722L110.834 13.8006C110.636 13.0303 110.173 12.6341 109.49 12.6341C108.609 12.6341 107.816 13.1403 107.111 14.1748C106.406 15.1873 105.855 16.4419 105.459 17.8725C105.062 19.3252 104.864 20.5798 104.864 21.6803C104.864 22.7808 105.018 23.4851 105.348 23.7933C105.657 24.1014 106.053 24.2555 106.516 24.2555C107.023 24.2775 107.551 24.0354 108.102 23.5512Z" fill="#FFB703"/>
<path d="M118.677 26.1703C117.729 25.3339 117.245 24.0133 117.245 22.2085C117.245 20.6898 117.553 19.017 118.148 17.2122C118.743 15.3853 119.712 13.8226 121.056 12.502C122.4 11.1813 124.118 10.499 126.211 10.499C128.811 10.499 130.22 11.9957 130.419 14.9451C130.903 14.835 131.322 14.5709 131.719 14.1307C132.093 13.6905 132.446 13.2063 132.776 12.656C133.261 12.656 133.569 13.1843 133.349 13.6025C132.952 14.3508 132.578 14.9671 132.247 15.4513C131.785 16.1337 131.168 16.6619 130.419 17.0801C130.287 19.1491 129.868 20.9759 129.141 22.5386C128.414 24.1014 127.489 25.3119 126.343 26.1483C125.198 27.0067 123.942 27.4249 122.532 27.4249C120.924 27.4249 119.624 27.0067 118.677 26.1703ZM126.145 22.4726C126.85 21.152 127.335 19.5232 127.599 17.5863C127.07 17.3882 126.806 16.904 126.806 16.0896C126.806 15.2312 127.114 14.659 127.731 14.3728C127.687 13.6685 127.577 13.1843 127.379 12.8981C127.18 12.634 126.894 12.4799 126.475 12.4799C125.748 12.4799 125.043 13.0082 124.382 14.0427C123.722 15.0992 123.193 16.3538 122.774 17.8284C122.356 19.3251 122.157 20.6237 122.157 21.7463C122.157 22.8028 122.268 23.5071 122.51 23.8813C122.752 24.2334 123.193 24.4315 123.832 24.4315C124.691 24.4535 125.44 23.7932 126.145 22.4726Z" fill="#FFB703"/>
<path d="M158.133 26.4123C157.494 25.708 157.185 24.8056 157.185 23.7491C157.185 23.2869 157.23 22.7586 157.362 22.1864C157.472 21.6141 157.582 21.0418 157.714 20.4916C157.824 19.9413 157.912 19.5892 157.957 19.4351C158.133 18.6647 158.287 17.9164 158.463 17.168C158.617 16.4197 158.684 15.8034 158.684 15.3412C158.684 14.2186 158.287 13.6464 157.494 13.6464C156.921 13.6464 156.414 13.9325 155.974 14.4828C155.533 15.033 155.181 15.7814 154.916 16.6838L153.044 25.5319C152.823 26.5444 151.92 27.2707 150.885 27.2707H150.62C149.211 27.2707 148.175 25.9721 148.462 24.6075L150.312 15.8694C150.378 15.6053 150.422 15.3412 150.422 15.033C150.422 14.0646 150.092 13.5803 149.431 13.5803C148.814 13.5803 148.285 13.8665 147.823 14.4167C147.36 14.967 147.008 15.7153 146.743 16.6398L144.871 25.4879C144.65 26.5004 143.747 27.2267 142.712 27.2267H142.447C141.037 27.2267 140.002 25.9281 140.288 24.5635L142.866 12.4578C143.086 11.4454 143.989 10.719 145.025 10.719H146.236C147.14 10.719 147.823 11.5554 147.624 12.4358C148.748 11.1812 150.092 10.5649 151.656 10.5649C153.595 10.5649 154.718 11.5114 155.049 13.4043C156.26 11.5334 157.802 10.587 159.653 10.587C160.776 10.587 161.658 10.8951 162.319 11.5114C162.979 12.1277 163.31 13.0521 163.31 14.3067C163.31 14.945 163.222 15.6493 163.09 16.4417C162.935 17.2341 162.715 18.1805 162.429 19.303C162.252 19.9853 162.098 20.6456 161.944 21.306C161.79 21.9663 161.724 22.4725 161.724 22.8467C161.724 23.2869 161.812 23.639 162.01 23.8812C162.208 24.1233 162.539 24.2333 163.046 24.2333C163.706 24.2333 164.235 23.9912 164.632 23.529C165.028 23.0668 165.425 22.3184 165.821 21.328H167.209C166.394 23.7491 165.447 25.3779 164.389 26.1922C163.31 27.0286 162.208 27.4248 161.063 27.4248C159.741 27.4908 158.75 27.1167 158.133 26.4123Z" fill="#FFB703"/>
<path d="M166.548 26.5004C165.887 25.8401 165.579 24.8497 165.579 23.529C165.579 22.9788 165.667 22.2745 165.843 21.372L167.716 12.5239C167.936 11.5114 168.839 10.7851 169.875 10.7851H170.139C171.549 10.7851 172.585 12.0837 172.298 13.4483L170.492 22.0103C170.426 22.3405 170.382 22.6486 170.382 22.9348C170.382 23.8372 170.712 24.2774 171.373 24.2774C171.99 24.2774 172.518 24.0133 172.959 23.507C173.4 23.0008 173.752 22.2745 174.017 21.372L175.889 12.5239C176.109 11.5114 177.013 10.7851 178.048 10.7851H178.312C179.722 10.7851 180.758 12.0837 180.471 13.4483L178.665 22.0103C178.577 22.3405 178.533 22.6927 178.533 23.0668C178.533 23.507 178.643 23.8152 178.841 24.0133C179.039 24.2114 179.392 24.2994 179.877 24.2994C180.493 24.2994 181.022 24.0353 181.485 23.507C181.925 22.9788 182.3 22.2745 182.564 21.3941H183.952C183.137 23.7712 182.124 25.3779 180.934 26.2363C179.722 27.0947 178.533 27.5129 177.321 27.5129C176.374 27.5129 175.625 27.2488 175.052 26.7205C174.501 26.1923 174.149 25.4219 174.039 24.3874C173.29 25.598 172.496 26.4344 171.681 26.8746C170.844 27.3148 170.007 27.5349 169.148 27.5349C168.046 27.4909 167.209 27.1607 166.548 26.5004ZM178.136 2.53125C179.039 2.53125 179.59 3.52171 179.105 4.29207L176.242 8.78217C175.096 8.78217 174.347 7.59361 174.832 6.55913L176.153 3.78584C176.506 3.01548 177.277 2.53125 178.136 2.53125Z" fill="#FFB703"/>
<path d="M183.622 26.8746C182.895 26.4784 182.366 25.9501 181.991 25.2898C181.639 24.6515 181.463 23.9692 181.463 23.2649C181.463 22.5385 181.639 21.9003 181.969 21.372C182.322 20.8438 182.718 20.4476 183.203 20.2055C184.062 18.6647 184.811 17.102 185.45 15.5393C185.935 14.3507 186.398 13.0741 186.838 11.7535C187.102 10.9611 187.807 10.3669 188.645 10.2568L189.768 10.1027C191.046 9.92666 192.191 10.8951 192.258 12.1717C192.368 14.3067 192.522 16.5518 192.72 18.9289C192.83 20.2495 192.896 21.2179 192.896 21.8122C192.896 22.3184 192.852 22.7366 192.764 23.0668C193.8 22.4725 194.593 21.9223 195.143 21.416H196.531C195.121 23.0448 193.425 24.4094 191.486 25.554C190.848 26.2363 190.055 26.7425 189.129 27.0507C188.182 27.3588 187.257 27.5349 186.309 27.5349C185.23 27.4909 184.349 27.2708 183.622 26.8746ZM187.279 24.1453C187.829 23.6611 188.116 22.8907 188.116 21.8122C188.116 21.1519 188.05 20.2275 187.918 19.0389C187.697 16.5297 187.543 14.857 187.477 13.9766C186.948 15.7154 186.045 17.8063 184.789 20.2275C185.296 20.4916 185.56 20.8878 185.56 21.394C185.56 21.8122 185.428 22.1864 185.142 22.5165C184.855 22.8467 184.525 23.0228 184.106 23.0228C183.644 23.0228 183.335 22.8907 183.225 22.5826C183.225 23.3749 183.379 23.9692 183.71 24.3434C184.018 24.7176 184.547 24.8936 185.252 24.8936C186.045 24.8716 186.728 24.6295 187.279 24.1453Z" fill="#FFB703"/>
<path d="M195.871 26.5005C195.21 25.8402 194.901 24.8498 194.901 23.5291C194.901 22.9789 194.989 22.2746 195.166 21.3721L197.038 12.524C197.258 11.5115 198.162 10.7852 199.197 10.7852H199.461C200.871 10.7852 201.907 12.0838 201.62 13.4484L199.814 22.0104C199.726 22.3406 199.682 22.6928 199.682 23.0669C199.682 23.5071 199.792 23.8153 199.99 24.0134C200.188 24.2115 200.541 24.2995 201.026 24.2995C201.664 24.2995 202.259 24.0354 202.81 23.4851C203.361 22.9569 203.757 22.2525 204 21.3941H205.388C204.572 23.7713 203.515 25.378 202.237 26.2364C200.959 27.0948 199.704 27.513 198.426 27.513C197.369 27.491 196.509 27.1608 195.871 26.5005ZM198.823 8.232C198.338 7.74778 198.096 7.17551 198.074 6.5152C198.051 5.78886 198.316 5.06252 198.823 4.53428C199.329 4.02804 199.946 3.76392 200.673 3.76392C201.4 3.76392 202.017 4.02804 202.546 4.53428C203.052 5.06252 203.317 5.67881 203.317 6.40515C203.317 7.13149 203.052 7.74778 202.546 8.25401C202.017 8.76025 201.29 9.04638 200.563 9.00236C199.88 8.95834 199.307 8.71623 198.823 8.232Z" fill="#FFB703"/>
<path d="M204.903 26.2144C204 25.378 203.537 24.0354 203.537 22.2305C203.537 20.7118 203.845 19.039 204.44 17.2122C205.035 15.3853 206.004 13.8006 207.348 12.48C208.67 11.1594 210.366 10.4771 212.415 10.4771C213.737 10.4771 214.684 10.7632 215.235 11.3355C215.808 11.9077 216.072 12.6341 216.072 13.5145C216.072 14.2848 215.896 14.8791 215.566 15.2973C215.235 15.7155 214.817 15.9356 214.31 15.9356C214.31 15.9356 214.31 15.9356 214.288 15.9356C213.693 15.9356 213.252 15.3413 213.385 14.747C213.495 14.3288 213.539 13.9547 213.539 13.5805C213.539 13.1623 213.451 12.8321 213.296 12.59C213.142 12.3479 212.9 12.2379 212.613 12.2379C211.953 12.2379 211.292 12.7881 210.631 13.8666C209.97 14.9451 209.419 16.2658 209.001 17.7845C208.582 19.3252 208.384 20.7118 208.384 21.9444C208.384 23.0229 208.56 23.7492 208.934 24.1454C209.309 24.5416 209.904 24.7177 210.763 24.7177C211.953 24.7177 212.966 24.4536 213.825 23.8813C214.64 23.3531 215.521 22.5827 216.469 21.5262C216.557 21.4162 216.689 21.3721 216.843 21.3721C217.24 21.3721 217.482 21.8123 217.262 22.1425C214.905 25.7082 212.041 27.469 208.67 27.469C207.062 27.491 205.806 27.0508 204.903 26.2144Z" fill="#FFB703"/>
<path d="M217.482 26.1924C216.645 25.334 216.226 23.9914 216.226 22.1645C216.226 20.5358 216.557 18.819 217.196 17.0361C217.835 15.2533 218.826 13.7346 220.104 12.48C221.404 11.2474 222.924 10.6091 224.708 10.6091C225.611 10.6091 226.272 10.7632 226.735 11.0713C227.175 11.3795 227.396 11.7977 227.396 12.2819V12.524C227.616 11.5116 228.497 10.7632 229.555 10.7632H229.797C231.207 10.7632 232.242 12.0618 231.956 13.4264L230.15 21.9884C230.061 22.3186 230.017 22.6708 230.017 23.0449C230.017 23.4851 230.127 23.7933 230.326 23.9914C230.524 24.1895 230.877 24.2775 231.361 24.2775C231.67 24.2775 231.89 24.6077 231.78 24.8938C231.405 25.7302 231.053 26.3465 230.7 26.7427C230.26 27.2489 229.621 27.491 228.784 27.491C227.88 27.491 227.153 27.2269 226.581 26.6766C226.03 26.1484 225.677 25.378 225.545 24.4096C224.201 26.4565 222.549 27.469 220.632 27.469C219.377 27.491 218.319 27.0508 217.482 26.1924ZM224.422 23.5072C224.95 23.0009 225.325 22.2746 225.523 21.3722L227.109 13.9107C227.109 13.6245 226.999 13.3384 226.779 13.0743C226.559 12.8102 226.206 12.6561 225.743 12.6561C224.862 12.6561 224.069 13.1623 223.364 14.1968C222.659 15.2093 222.109 16.4639 221.712 17.8945C221.315 19.3472 221.117 20.6018 221.117 21.7023C221.117 22.8028 221.271 23.5071 221.602 23.8153C221.91 24.1234 222.307 24.2775 222.769 24.2775C223.32 24.2775 223.871 24.0134 224.422 23.5072Z" fill="#FFB703"/>
<path d="M0 3.25767V28.0632C0 29.3178 1.25572 30.1982 2.44535 29.736C5.99221 28.3714 13.0859 26.6766 21.8319 29.8681C22.9995 30.3083 24.2552 29.4279 24.2552 28.1733V3.25767C24.2552 2.4653 23.7265 1.76097 22.9775 1.54087C19.8051 0.572414 11.1693 -1.3865 1.27775 1.54087C0.528725 1.76097 0 2.4653 0 3.25767Z" fill="#FFB703"/>
<path d="M27.2293 3.25767V28.0632C27.2293 29.3178 28.4851 30.1982 29.6747 29.736C33.2216 28.3714 40.3153 26.6766 49.0613 29.8681C50.2289 30.3083 51.4846 29.4279 51.4846 28.1733V3.25767C51.4846 2.4653 50.9559 1.76097 50.2068 1.54087C47.0345 0.572414 38.3986 -1.3865 28.5071 1.54087C27.7581 1.76097 27.2293 2.4653 27.2293 3.25767Z" fill="#FFB703"/>
<path d="M15.9278 19.039C14.8263 19.5893 13.6367 19.4132 13.2622 18.6648C12.8877 17.9165 13.4604 16.86 14.562 16.3097C14.9805 16.1116 15.3991 16.0016 15.7736 16.0016C15.8838 16.0016 15.9939 15.8915 15.9939 15.7815V12.0397C15.9939 11.9517 15.9058 11.8637 15.8177 11.8637H10.0017C9.91359 11.8637 9.82546 11.9517 9.82546 12.0397V16.904C9.82546 16.904 9.82547 16.926 9.8475 16.926C10.222 17.6744 9.64922 18.7309 8.54771 19.2811C7.4462 19.8314 6.25657 19.6553 5.88206 18.907C5.50755 18.1586 6.08033 17.1021 7.18184 16.5519C7.57839 16.3538 7.99696 16.2437 8.37147 16.2437C8.48162 16.2437 8.59177 16.1337 8.59177 16.0236V9.88274C8.59177 9.59661 8.83411 9.35449 9.1205 9.35449H16.765C17.0514 9.35449 17.2937 9.59661 17.2937 9.88274V16.6839C17.2937 16.7059 17.2937 16.7499 17.3157 16.772C17.536 17.5203 16.9632 18.5108 15.9278 19.039Z" fill="#023047"/>
<path d="M42.0116 18.1367C40.9101 18.6869 39.7205 18.5108 39.3459 17.7625C38.9714 17.0141 39.5442 15.9576 40.6457 15.4074C41.0643 15.2093 41.4829 15.0992 41.8574 15.0992C41.9675 15.0992 42.0777 14.9892 42.0777 14.8791V11.1374C42.0777 11.0494 41.9896 10.9613 41.9014 10.9613H36.0855C35.9974 10.9613 35.9092 11.0494 35.9092 11.1374V16.0017C35.9092 16.0017 35.9092 16.0237 35.9313 16.0237C36.3058 16.772 35.733 17.8285 34.6315 18.3788C33.53 18.929 32.3403 18.753 31.9658 18.0046C31.5913 17.2563 32.1641 16.1998 33.2656 15.6495C33.6622 15.4514 34.0807 15.3414 34.4552 15.3414C34.5654 15.3414 34.6755 15.2313 34.6755 15.1213V8.98039C34.6755 8.69426 34.9179 8.45215 35.2043 8.45215H42.8487C43.1351 8.45215 43.3775 8.69426 43.3775 8.98039V15.7816C43.3775 15.8036 43.3775 15.8476 43.3995 15.8696C43.6418 16.618 43.069 17.6084 42.0116 18.1367Z" fill="#023047"/>
</g>
<defs>
<clipPath id="clip0">
<rect width="232" height="30" fill="white"/>
</clipPath>
</defs>
</svg>
