<svg width="274" height="50" viewBox="0 0 274 50" fill="none" xmlns="http://www.w3.org/2000/svg">
<rect width="274" height="50" rx="4" fill="#219EBC"/>
<path d="M120.57 31H117.492L112.523 22.3594H112.453C112.552 23.8854 112.602 24.974 112.602 25.625V31H110.438V19.5781H113.492L118.453 28.1328H118.508C118.43 26.6484 118.391 25.599 118.391 24.9844V19.5781H120.57V31ZM125.164 26.6172C125.164 27.4818 125.305 28.1354 125.586 28.5781C125.872 29.0208 126.336 29.2422 126.977 29.2422C127.612 29.2422 128.068 29.0234 128.344 28.5859C128.625 28.1432 128.766 27.487 128.766 26.6172C128.766 25.7526 128.625 25.1042 128.344 24.6719C128.062 24.2396 127.602 24.0234 126.961 24.0234C126.326 24.0234 125.867 24.2396 125.586 24.6719C125.305 25.099 125.164 25.7474 125.164 26.6172ZM131.203 26.6172C131.203 28.0391 130.828 29.151 130.078 29.9531C129.328 30.7552 128.284 31.1562 126.945 31.1562C126.107 31.1562 125.367 30.974 124.727 30.6094C124.086 30.2396 123.594 29.7109 123.25 29.0234C122.906 28.3359 122.734 27.5339 122.734 26.6172C122.734 25.1901 123.107 24.0807 123.852 23.2891C124.596 22.4974 125.643 22.1016 126.992 22.1016C127.831 22.1016 128.57 22.2839 129.211 22.6484C129.852 23.013 130.344 23.5365 130.688 24.2188C131.031 24.901 131.203 25.7005 131.203 26.6172ZM135.25 31L131.922 22.2656H134.414L136.102 27.2422C136.289 27.8724 136.406 28.4688 136.453 29.0312H136.5C136.526 28.5312 136.643 27.9349 136.852 27.2422L138.531 22.2656H141.023L137.695 31H135.25ZM147.828 31L147.367 29.8125H147.305C146.904 30.3177 146.49 30.6693 146.062 30.8672C145.641 31.0599 145.089 31.1562 144.406 31.1562C143.568 31.1562 142.906 30.9167 142.422 30.4375C141.943 29.9583 141.703 29.276 141.703 28.3906C141.703 27.4635 142.026 26.7812 142.672 26.3438C143.323 25.901 144.302 25.6562 145.609 25.6094L147.125 25.5625V25.1797C147.125 24.2943 146.672 23.8516 145.766 23.8516C145.068 23.8516 144.247 24.0625 143.305 24.4844L142.516 22.875C143.521 22.349 144.635 22.0859 145.859 22.0859C147.031 22.0859 147.93 22.3411 148.555 22.8516C149.18 23.362 149.492 24.138 149.492 25.1797V31H147.828ZM147.125 26.9531L146.203 26.9844C145.51 27.0052 144.995 27.1302 144.656 27.3594C144.318 27.5885 144.148 27.9375 144.148 28.4062C144.148 29.0781 144.534 29.4141 145.305 29.4141C145.857 29.4141 146.297 29.2552 146.625 28.9375C146.958 28.6198 147.125 28.1979 147.125 27.6719V26.9531ZM160.969 22.1016C162 22.1016 162.807 22.5052 163.391 23.3125C163.974 24.1146 164.266 25.2161 164.266 26.6172C164.266 28.0599 163.964 29.1771 163.359 29.9688C162.76 30.7604 161.943 31.1562 160.906 31.1562C159.88 31.1562 159.076 30.7839 158.492 30.0391H158.328L157.93 31H156.109V18.8438H158.492V21.6719C158.492 22.0312 158.461 22.6068 158.398 23.3984H158.492C159.049 22.5339 159.875 22.1016 160.969 22.1016ZM160.203 24.0078C159.615 24.0078 159.185 24.1901 158.914 24.5547C158.643 24.9141 158.503 25.5104 158.492 26.3438V26.6016C158.492 27.5391 158.63 28.2109 158.906 28.6172C159.188 29.0234 159.63 29.2266 160.234 29.2266C160.724 29.2266 161.112 29.0026 161.398 28.5547C161.69 28.1016 161.836 27.4453 161.836 26.5859C161.836 25.7266 161.69 25.0833 161.398 24.6562C161.107 24.224 160.708 24.0078 160.203 24.0078ZM172.422 31L172.102 29.8828H171.977C171.721 30.2891 171.359 30.6042 170.891 30.8281C170.422 31.0469 169.888 31.1562 169.289 31.1562C168.263 31.1562 167.49 30.8828 166.969 30.3359C166.448 29.7839 166.188 28.9922 166.188 27.9609V22.2656H168.57V27.3672C168.57 27.9974 168.682 28.4714 168.906 28.7891C169.13 29.1016 169.487 29.2578 169.977 29.2578C170.643 29.2578 171.125 29.0365 171.422 28.5938C171.719 28.1458 171.867 27.4062 171.867 26.375V22.2656H174.25V31H172.422ZM182.844 28.4062C182.844 29.3021 182.531 29.9844 181.906 30.4531C181.286 30.9219 180.357 31.1562 179.117 31.1562C178.482 31.1562 177.94 31.112 177.492 31.0234C177.044 30.9401 176.625 30.8151 176.234 30.6484V28.6797C176.677 28.888 177.174 29.0625 177.727 29.2031C178.284 29.3438 178.773 29.4141 179.195 29.4141C180.06 29.4141 180.492 29.1641 180.492 28.6641C180.492 28.4766 180.435 28.3255 180.32 28.2109C180.206 28.0911 180.008 27.9583 179.727 27.8125C179.445 27.6615 179.07 27.487 178.602 27.2891C177.93 27.0078 177.435 26.7474 177.117 26.5078C176.805 26.2682 176.576 25.9948 176.43 25.6875C176.289 25.375 176.219 24.9922 176.219 24.5391C176.219 23.763 176.518 23.1641 177.117 22.7422C177.721 22.3151 178.576 22.1016 179.68 22.1016C180.732 22.1016 181.755 22.3307 182.75 22.7891L182.031 24.5078C181.594 24.3203 181.185 24.1667 180.805 24.0469C180.424 23.9271 180.036 23.8672 179.641 23.8672C178.938 23.8672 178.586 24.0573 178.586 24.4375C178.586 24.651 178.698 24.8359 178.922 24.9922C179.151 25.1484 179.648 25.3802 180.414 25.6875C181.096 25.9635 181.596 26.2214 181.914 26.4609C182.232 26.7005 182.466 26.9766 182.617 27.2891C182.768 27.6016 182.844 27.974 182.844 28.4062ZM188.25 31.1562C185.531 31.1562 184.172 29.6641 184.172 26.6797C184.172 25.1953 184.542 24.0625 185.281 23.2812C186.021 22.4948 187.081 22.1016 188.461 22.1016C189.471 22.1016 190.378 22.2995 191.18 22.6953L190.477 24.5391C190.102 24.388 189.753 24.2656 189.43 24.1719C189.107 24.0729 188.784 24.0234 188.461 24.0234C187.221 24.0234 186.602 24.9036 186.602 26.6641C186.602 28.3724 187.221 29.2266 188.461 29.2266C188.919 29.2266 189.344 29.1667 189.734 29.0469C190.125 28.9219 190.516 28.7292 190.906 28.4688V30.5078C190.521 30.7526 190.13 30.9219 189.734 31.0156C189.344 31.1094 188.849 31.1562 188.25 31.1562ZM198.484 31L198.023 29.8125H197.961C197.56 30.3177 197.146 30.6693 196.719 30.8672C196.297 31.0599 195.745 31.1562 195.062 31.1562C194.224 31.1562 193.562 30.9167 193.078 30.4375C192.599 29.9583 192.359 29.276 192.359 28.3906C192.359 27.4635 192.682 26.7812 193.328 26.3438C193.979 25.901 194.958 25.6562 196.266 25.6094L197.781 25.5625V25.1797C197.781 24.2943 197.328 23.8516 196.422 23.8516C195.724 23.8516 194.904 24.0625 193.961 24.4844L193.172 22.875C194.177 22.349 195.292 22.0859 196.516 22.0859C197.688 22.0859 198.586 22.3411 199.211 22.8516C199.836 23.362 200.148 24.138 200.148 25.1797V31H198.484ZM197.781 26.9531L196.859 26.9844C196.167 27.0052 195.651 27.1302 195.312 27.3594C194.974 27.5885 194.805 27.9375 194.805 28.4062C194.805 29.0781 195.19 29.4141 195.961 29.4141C196.513 29.4141 196.953 29.2552 197.281 28.9375C197.615 28.6198 197.781 28.1979 197.781 27.6719V26.9531Z" fill="white"/>
<g clip-path="url(#clip0)">
<path d="M72.3008 33.7516L76.5848 29.0781C76.7781 28.8672 77.0402 28.75 77.3152 28.75H78.0156C76.8297 27.0953 76.125 25.0141 76.125 22.75C76.125 17.3641 80.1254 13 85.0625 13C89.9996 13 94 17.3641 94 22.75C94 28.1359 89.9996 32.5 85.0625 32.5C82.9871 32.5 81.0793 31.7313 79.5625 30.4375V31.2016C79.5625 31.5016 79.4551 31.7875 79.2617 31.9984L74.9777 36.6719C74.5738 37.1125 73.9207 37.1125 73.5211 36.6719L72.3051 35.3453C71.9012 34.9047 71.9012 34.1922 72.3008 33.7516ZM85.0625 28.75C88.1004 28.75 90.5625 26.0688 90.5625 22.75C90.5625 19.4359 88.1047 16.75 85.0625 16.75C82.0246 16.75 79.5625 19.4312 79.5625 22.75C79.5625 26.0641 82.0203 28.75 85.0625 28.75Z" fill="white"/>
</g>
<defs>
<clipPath id="clip0">
<rect width="22" height="24" fill="white" transform="matrix(-1 0 0 1 94 13)"/>
</clipPath>
</defs>
</svg>
